<?xml version="1.0"?>
<svg xmlns="http://www.w3.org/2000/svg" height="512px" viewBox="0 0 496 496" width="512px" class=""><g><path d="m395.265625 138.566406c-3.578125-14.109375-9.167969-27.582031-16.699219-40.183594l15.265625-25.445312-42.777343-42.777344-25.445313 15.265625c-12.601563-7.523437-26.082031-13.121093-40.183594-16.699219l-7.1875-28.726562h-60.476562l-7.1875 28.734375c-14.109375 3.578125-27.582031 9.167969-40.183594 16.699219l-25.445313-15.265625-42.777343 42.777343 15.265625 25.445313c-7.523438 12.601563-13.121094 26.082031-16.699219 40.183594l-28.734375 7.1875v60.484375l28.734375 7.1875c3.578125 14.109375 9.167969 27.582031 16.699219 40.183594l-15.265625 25.445312 42.777343 42.777344 25.445313-15.265625c12.601563 7.523437 26.082031 13.121093 40.183594 16.699219l3.167969 12.671874 10.257812-23.945312v-34.894531c-45.847656-10.847657-80-51.945313-80-101.105469 0-57.441406 46.558594-104 104-104s104 46.558594 104 104c0 49.160156-34.152344 90.257812-80 101.105469v34.894531l10.257812 23.9375 3.167969-12.671875c14.109375-3.578125 27.582031-9.167969 40.183594-16.699219l25.445313 15.265625 42.777343-42.777343-15.265625-25.445313c7.523438-12.601563 13.121094-26.082031 16.699219-40.183594l28.734375-7.1875v-60.476562zm0 0" fill="#f0bc5e" data-original="#F0BC5E" class="" style="fill:#EA2340" data-old_color="#f0bc5e"/><path d="m472 448c-10.414062 0-19.214844 6.710938-22.527344 16h-161.472656c0-8.824219-7.175781-16-16-16h-48c-8.824219 0-16 7.175781-16 16h-161.472656c-3.3125-9.289062-12.113282-16-22.527344-16-13.230469 0-24 10.769531-24 24s10.769531 24 24 24c10.414062 0 19.214844-6.710938 22.527344-16h161.472656c0 8.824219 7.175781 16 16 16h48c8.824219 0 16-7.175781 16-16h161.472656c3.3125 9.289062 12.113282 16 22.527344 16 13.230469 0 24-10.769531 24-24s-10.769531-24-24-24zm-448 32c-4.40625 0-8-3.59375-8-8s3.59375-8 8-8 8 3.59375 8 8-3.59375 8-8 8zm200 0v-16h48l.007812 16zm248 0c-4.40625 0-8-3.59375-8-8s3.59375-8 8-8 8 3.59375 8 8-3.59375 8-8 8zm0 0" data-original="#000000" class="active-path" style="fill:#F6EEE5" data-old_color="#000000"/><path d="m64 344c3.167969 0 6.160156-.609375 9.054688-1.464844 40.632812 56.113282 105.457031 89.464844 174.945312 89.464844 69.457031 0 134.320312-33.367188 174.953125-89.464844 2.886719.863282 5.878906 1.464844 9.046875 1.464844 17.648438 0 32-14.351562 32-32s-14.351562-32-32-32-32 14.351562-32 32c0 8.6875 3.503906 16.558594 9.144531 22.328125-32.785156 44.582031-82.175781 73.425781-136.519531 80.152344l32.496094-45.496094-25.121094-58.625v-190.359375c0-13.230469-10.769531-24-24-24h-16c-13.230469 0-24 10.769531-24 24v190.359375l-25.128906 58.625 32.496094 45.496094c-54.359376-6.71875-103.734376-35.558594-136.519532-80.152344 5.648438-5.769531 9.152344-13.640625 9.152344-22.328125 0-17.648438-14.351562-32-32-32s-32 14.351562-32 32 14.351562 32 32 32zm368-48c8.824219 0 16 7.175781 16 16s-7.175781 16-16 16-16-7.175781-16-16 7.175781-16 16-16zm-192 64c0-4.40625 3.59375-8 8-8s8 3.59375 8 8-3.59375 8-8 8-8-3.59375-8-8zm24-56h-32v-16h32zm-24-192h16c4.40625 0 8 3.59375 8 8v152h-32v-152c0-4.40625 3.59375-8 8-8zm-10.726562 208h37.453124l20.152344 47.007812-30.878906 43.222657v-27.710938c9.289062-3.3125 16-12.113281 16-22.527343 0-13.230469-10.769531-24-24-24s-24 10.769531-24 24c0 10.414062 6.710938 19.214843 16 22.527343v27.710938l-30.871094-43.222657zm-165.273438-24c8.824219 0 16 7.175781 16 16s-7.175781 16-16 16-16-7.175781-16-16 7.175781-16 16-16zm0 0" data-original="#000000" class="active-path" style="fill:#F6EEE5" data-old_color="#000000"/><path d="m196.289062 275.367188 7.398438-14.183594c-31.878906-16.617188-51.6875-49.253906-51.6875-85.183594 0-52.9375 43.0625-96 96-96s96 43.0625 96 96c0 35.921875-19.808594 68.558594-51.6875 85.183594l7.398438 14.183594c37.183593-19.382813 60.289062-57.464844 60.289062-99.367188 0-61.761719-50.238281-112-112-112s-112 50.238281-112 112c0 41.910156 23.105469 79.992188 60.289062 99.367188zm0 0" data-original="#000000" class="active-path" style="fill:#F6EEE5" data-old_color="#000000"/></g> </svg>
